<?xml version="1.0" encoding="UTF-8"?>
<!DOCTYPE svg PUBLIC "-//W3C//DTD SVG 1.1//EN" "http://www.w3.org/Graphics/SVG/1.1/DTD/svg11.dtd">
<!-- Creator: CorelDRAW -->
<svg xmlns="http://www.w3.org/2000/svg" xml:space="preserve" width="200px" height="200px" shape-rendering="geometricPrecision" text-rendering="geometricPrecision" image-rendering="optimizeQuality" fill-rule="evenodd" clip-rule="evenodd"
viewBox="0 0 200 200">
 <g id="Layer_x0020_1">
  <metadata id="CorelCorpID_0Corel-Layer"/>
  <g id="_230011456">
   <path id="_228640040" fill="#ECEDEF" fill-rule="nonzero" d="M165.356 160.126c-0.826778,2.0634 -3.18428,4.39137 -5.2654,5.2654l-56.4347 23.3648c-2.04805,0.827959 -5.33626,0.827959 -7.40085,0l-56.4063 -23.3648c-2.08112,-0.874023 -4.37956,-3.20199 -5.21933,-5.2654l-23.4108 -56.4229c-0.827959,-2.01852 -0.827959,-5.39532 0,-7.38431l23.4108 -56.5386c0.83977,-1.97718 3.13821,-4.35122 5.21933,-5.13193l56.4063 -23.412c2.06458,-0.823235 5.3528,-0.823235 7.40085,0l56.4347 23.412c2.08112,0.780715 4.43862,3.15475 5.2654,5.13193l23.412 56.5386c0.83977,1.98899 0.83977,5.36579 0,7.38431l-23.412 56.4229z"/>
   <path id="_228627728" fill="#E5E8EA" fill-rule="nonzero" d="M165.356 160.126c-0.826778,2.0634 -3.18428,4.39137 -5.2654,5.2654l-56.4347 23.3648c-2.04805,0.827959 -5.33626,0.827959 -7.40085,0l-56.4063 -23.3648c-2.08112,-0.874023 -4.37956,-3.20199 -5.21933,-5.2654l-23.4108 -56.4229c-0.827959,-2.01852 -0.827959,-5.39532 0,-7.38431l23.4108 -56.5386c0.83977,-1.97718 3.13821,-4.35122 5.21933,-5.13193l56.4063 -23.412c2.06458,-0.823235 5.3528,-0.823235 7.40085,0l56.4347 23.412c2.08112,0.780715 4.43862,3.15475 5.2654,5.13193l23.412 56.5386c0.83977,1.98899 0.83977,5.36579 0,7.38431l-23.412 56.4229z"/>
   <path id="_227846096" fill="#131516" fill-rule="nonzero" d="M32.7522 99.9374c0,37.1105 30.1609,67.2879 67.2549,67.2879 37.081,0 67.2419,-30.1774 67.2419,-67.2879 0,-37.0314 -30.1609,-67.1663 -67.2419,-67.1663 -37.094,0 -67.2549,30.1349 -67.2549,67.1663zm8.41778 0c0,-32.405 26.4026,-58.7497 58.8371,-58.7497 32.4345,0 58.8253,26.3447 58.8253,58.7497 0,32.4676 -26.3908,58.8713 -58.8253,58.8713 -32.4345,0 -58.8371,-26.4038 -58.8371,-58.8713z"/>
   <path id="_228635144" fill="#131516" fill-rule="nonzero" d="M52.3823 99.9799c0,26.2573 21.3462,47.5917 47.6035,47.5917 26.275,0 47.6342,-21.3344 47.6342,-47.5917 0,-26.2289 -21.3592,-47.5586 -47.6342,-47.5586 -26.2573,0 -47.6035,21.3297 -47.6035,47.5586zm5.61619 0c0,-23.1321 18.8269,-41.9425 41.9873,-41.9425 23.1781,0 42.0169,18.8104 42.0169,41.9425 0,23.1474 -18.8387,41.9743 -42.0169,41.9743 -23.1604,0 -41.9873,-18.8269 -41.9873,-41.9743z"/>
   <path id="_228014360" fill="#131516" fill-rule="nonzero" d="M69.5462 99.9799c0,16.7954 13.6525,30.4443 30.4443,30.4443 16.7919,0 30.4609,-13.6489 30.4609,-30.4443 0,-16.7623 -13.669,-30.4113 -30.4609,-30.4113 -16.7919,0 -30.4443,13.6489 -30.4443,30.4113zm5.61619 0c0,-13.6666 11.1462,-24.7951 24.8281,-24.7951 13.6985,0 24.8447,11.1284 24.8447,24.7951 0,13.6985 -11.1462,24.8281 -24.8447,24.8281 -13.682,0 -24.8281,-11.1296 -24.8281,-24.8281z"/>
   <path id="_228137064" fill="#131516" fill-rule="nonzero" d="M87.2487 99.9882c0,7.05006 5.71658,12.7536 12.7666,12.7536 7.01698,0 12.7383,-5.70359 12.7383,-12.7536 0,-7.01698 -5.7213,-12.7383 -12.7383,-12.7383 -7.05006,0 -12.7666,5.7213 -12.7666,12.7383zm5.61619 0c0,-3.92011 3.2138,-7.1221 7.15045,-7.1221 3.92011,0 7.12092,3.20199 7.12092,7.1221 0,3.93665 -3.20081,7.13746 -7.12092,7.13746 -3.93665,0 -7.15045,-3.20081 -7.15045,-7.13746z"/>
   <path id="_228663256" fill="#131516" fill-rule="nonzero" d="M94.6874 7.31581l-56.4642 23.4403c-2.93388,1.10788 -6.13469,4.22956 -7.48943,7.38549l-23.4108 56.5682c-1.22481,2.99648 -1.25316,7.55085 -0.0165356,10.5851l23.4108 56.4512c1.25434,3.06735 4.40909,6.25281 7.50596,7.53549l56.4217 23.3825c3.1264,1.22363 7.54848,1.22363 10.5698,0.0165356l56.4808 -23.386c3.13821,-1.30867 6.3095,-4.49767 7.57683,-7.57683l0 0.0283467 23.4108 -56.4052c1.24135,-3.08034 1.22481,-7.63471 0,-10.6312l-23.4108 -56.5221c-1.35474,-3.20199 -4.58508,-6.31068 -7.69376,-7.48943l-56.3178 -23.3529c-3.06735,-1.23662 -7.48943,-1.23662 -10.5733,-0.0295278zm3.11341 177.52l-56.3508 -23.3529 -2.91735 -2.95042 -23.4285 -56.4347 0 -4.15751 23.412 -56.5398 2.81695 -2.81577 56.5386 -23.4533 4.18704 0.0295278 56.4229 23.3813 3.02128 2.88782 23.3825 56.5103 -0.0129922 4.20003 -23.412 56.3922 -2.97876 2.96341 -56.4512 23.3695 -4.22956 -0.0295278z"/>
  </g>
 </g>
</svg>
