<?xml version="1.0" encoding="UTF-8" standalone="no"?>
<!-- Creator: CorelDRAW -->
<svg
   xmlns:dc="http://purl.org/dc/elements/1.1/"
   xmlns:cc="http://creativecommons.org/ns#"
   xmlns:rdf="http://www.w3.org/1999/02/22-rdf-syntax-ns#"
   xmlns:svg="http://www.w3.org/2000/svg"
   xmlns="http://www.w3.org/2000/svg"
   xmlns:sodipodi="http://sodipodi.sourceforge.net/DTD/sodipodi-0.dtd"
   xmlns:inkscape="http://www.inkscape.org/namespaces/inkscape"
   xml:space="preserve"
   width="200px"
   height="200px"
   shape-rendering="geometricPrecision"
   text-rendering="geometricPrecision"
   image-rendering="optimizeQuality"
   fill-rule="evenodd"
   clip-rule="evenodd"
   viewBox="0 0 200 200"
   id="svg2"
   sodipodi:version="0.32"
   inkscape:version="0.46"
   sodipodi:docname="GCControlStickC.svg"
   inkscape:output_extension="org.inkscape.output.svg.inkscape"><metadata
   id="metadata15"><rdf:RDF><cc:Work
       rdf:about=""><dc:format>image/svg+xml</dc:format><dc:type
         rdf:resource="http://purl.org/dc/dcmitype/StillImage" /></cc:Work></rdf:RDF></metadata><defs
   id="defs13"><inkscape:perspective
   sodipodi:type="inkscape:persp3d"
   inkscape:vp_x="0 : 100 : 1"
   inkscape:vp_y="0 : 1000 : 0"
   inkscape:vp_z="200 : 100 : 1"
   inkscape:persp3d-origin="100 : 66.666667 : 1"
   id="perspective17" />
  <metadata
   id="CorelCorpID_0Corel-Layer" />
  
 </defs><sodipodi:namedview
   inkscape:window-height="715"
   inkscape:window-width="691"
   inkscape:pageshadow="2"
   inkscape:pageopacity="0.0"
   guidetolerance="10.0"
   gridtolerance="10.0"
   objecttolerance="10.0"
   borderopacity="1.0"
   bordercolor="#666666"
   pagecolor="#ffffff"
   id="base"
   showgrid="false"
   inkscape:zoom="2.47"
   inkscape:cx="121.43417"
   inkscape:cy="103.67769"
   inkscape:window-x="259"
   inkscape:window-y="25"
   inkscape:current-layer="svg2" />
 <g
   id="_227974672"
   style="fill:#f3c912;fill-opacity:1;stroke:#000000;stroke-opacity:1;opacity:1">
   <path
   style="fill:#f3c912;fill-rule:nonzero;fill-opacity:1;stroke:#000000;stroke-opacity:1"
   d="M 94.7582,5.42366 L 37.0066,29.33056 C 34.19555,30.579 30.6345,33.78217 29.38607,37.26645 L 5.58197,94.56575 C 4.27448,97.65081 4.27448,102.33628 5.6114978,105.44965 L 29.445198,162.97565 C 30.651118,166.26859 34.241688,169.40798 36.947618,170.57965 L 94.578818,194.47355 C 97.807978,195.70427 102.18282,195.70427 105.32222,194.51961 L 162.84822,170.60921 C 165.99116,169.34778 169.26756,166.14461 170.57505,162.98868 L 194.40985,105.40358 C 195.73033,102.33623 195.73033,97.650763 194.39213,94.536183 L 170.58803,37.070383 C 169.33959,33.914453 166.06437,30.655763 162.8175,29.330563 L 105.4415,5.4839634 C 102.15329,4.3123034 97.825691,4.3123034 94.758301,5.4237267 L 94.7582,5.42366 z"
   id="_228640032" />
   <path
   style="fill:#00000f;fill-rule:nonzero;fill-opacity:0.94117647;stroke:#000000;stroke-opacity:1"
   d="M 94.7582,5.42366 L 37.0066,29.33056 C 34.19555,30.579 30.6345,33.78217 29.38607,37.26645 L 5.58197,94.56575 C 4.27448,97.65081 4.27448,102.33628 5.6114978,105.44965 L 29.445198,162.97565 C 30.651118,166.26859 34.241688,169.40798 36.947618,170.57965 L 94.578818,194.47355 C 97.807978,195.70427 102.18282,195.70427 105.32222,194.51961 L 162.84822,170.60921 C 165.99116,169.34778 169.26756,166.14461 170.57505,162.98868 L 194.40985,105.40358 C 195.73033,102.33623 195.73033,97.650763 194.39213,94.536183 L 170.58803,37.070383 C 169.33959,33.914453 166.06437,30.655763 162.8175,29.330563 L 105.4415,5.4839634 C 102.15329,4.3123034 97.825691,4.3123034 94.758301,5.4237267 L 94.7582,5.42366 z M 97.86807,13.43278 L 102.33149,13.491836 L 159.57169,37.266436 L 162.63904,40.317246 L 186.49044,97.846846 L 186.8058,100.02364 L 186.50343,102.06814 L 162.65563,159.68274 L 162.65563,159.66974 L 159.61899,162.64378 L 102.13669,186.52468 L 97.765402,186.49397 L 40.312602,162.66027 L 37.457852,159.86576 L 13.530852,102.12716 L 13.501324,97.905874 L 37.394024,40.346774 L 40.418854,37.236904 L 97.868154,13.432804 L 97.86807,13.43278 z"
   id="_228749208" />
   
   <path
   style="fill:#00000f;fill-rule:nonzero;fill-opacity:0.94117647;stroke:#000000;stroke-opacity:1"
   d="M 49.7484,100.024 C 49.7484,127.7341 72.2911,156.2768 100.0189,156.2768 C 127.6994,156.2768 150.2256,127.7341 150.2256,100.024 C 150.2256,72.3128 127.6994,43.7701 100.0189,43.7701 C 72.2911,43.7701 49.7484,72.3128 49.7484,100.024 L 49.7484,100.024 z M 53.47325,100.024 C 53.47325,75.4699 75.46125,47.4949 100.01885,47.4949 C 124.55995,47.4949 146.51365,75.4699 146.51365,100.024 C 146.51365,124.5651 124.55995,152.5519 100.01885,152.5519 C 75.46115,152.5519 53.47325,124.5651 53.47325,100.024 L 53.47325,100.024 z"
   id="_228650296"
   sodipodi:nodetypes="cssscccssscc" />
   
  </g>
<text
   xml:space="preserve"
   style="font-size:59.89178848px;font-style:normal;font-weight:normal;fill:#000000;fill-opacity:1;stroke:none;stroke-width:1px;stroke-linecap:butt;stroke-linejoin:miter;stroke-opacity:1;font-family:Bitstream Vera Sans"
   x="80.197136"
   y="119.062"
   id="text2417"
   transform="scale(0.9668308,1.0343072)"><tspan
     sodipodi:role="line"
     id="tspan2419"
     x="80.197136"
     y="119.062">C</tspan></text>
</svg>